<svg id="upload-to-cloud" xmlns="http://www.w3.org/2000/svg" width="37.508" height="25.778" viewBox="0 0 37.508 25.778">
  <path id="Path_2616" data-name="Path 2616" d="M28.945,41.866c-.351-4.733-4.794-8.488-10.205-8.488S8.883,37.135,8.534,41.869C3.695,42.411,0,46.076,0,50.473c0,4.788,4.381,8.683,9.767,8.683H24.619a.685.685,0,1,0,0-1.36H9.767c-4.542,0-8.236-3.285-8.236-7.323,0-3.885,3.421-7.093,7.789-7.3a.721.721,0,0,0,.724-.679c0-.013,0-.027,0-.04.011-4.255,3.909-7.714,8.7-7.714s8.687,3.46,8.7,7.716c0,.013,0,.027,0,.037a.721.721,0,0,0,.726.679c4.382.2,7.815,3.405,7.815,7.3a7.019,7.019,0,0,1-3.043,5.684.63.63,0,0,0-.111.957.832.832,0,0,0,1.076.1,8.322,8.322,0,0,0,3.607-6.739C37.508,46.062,33.8,42.4,28.945,41.866Z" transform="translate(0 -33.378)" fill="#ff375e"/>
  <path id="Path_2617" data-name="Path 2617" d="M140.966,135.758v8.673a.77.77,0,0,0,1.53,0v-8.673a.77.77,0,0,0-1.53,0Z" transform="translate(-122.992 -123.549)" fill="#ff375e"/>
  <path id="Path_2618" data-name="Path 2618" d="M116.166,111.138a.814.814,0,0,0,.541-.2.628.628,0,0,0,0-.962l-4.376-3.89a.834.834,0,0,0-1.082,0l-4.376,3.89a.628.628,0,0,0,0,.962.834.834,0,0,0,1.082,0l3.835-3.409,3.835,3.409A.815.815,0,0,0,116.166,111.138Z" transform="translate(-93.051 -97.668)" fill="#ff375e"/>
</svg>
